<svg width="100" height="100" viewBox="0 0 100 100" fill="none" xmlns="http://www.w3.org/2000/svg">
<path d="M60.1562 68.75C79.141 68.75 94.5312 53.3598 94.5312 34.375C94.5312 15.3902 79.141 0 60.1562 0C41.1715 0 25.7812 15.3902 25.7812 34.375C25.7812 53.3598 41.1715 68.75 60.1562 68.75Z" fill="#5A6164"/>
<path d="M34.375 25.7812C15.3906 25.7812 0 41.1719 0 60.1562C0 64.9219 3.82813 68.75 8.59375 68.75H60.1562C64.9219 68.75 68.75 64.9219 68.75 60.1562C68.75 41.1719 53.3594 25.7812 34.375 25.7812Z" fill="#374043"/>
<path d="M75 100C88.8071 100 100 88.8071 100 75C100 61.1929 88.8071 50 75 50C61.1929 50 50 61.1929 50 75C50 88.8071 61.1929 100 75 100Z" fill="#CFFFFF" fill-opacity="0.8"/>
<path d="M56.25 68.75C42.4219 68.75 31.25 79.9219 31.25 93.75C31.25 97.1875 34.0625 100 37.5 100H75C78.4375 100 81.25 97.1875 81.25 93.75C81.25 79.9219 70.0781 68.75 56.25 68.75Z" fill="#CDFAFA"/>
</svg>
